<svg xmlns="http://www.w3.org/2000/svg" xmlns:xlink="http://www.w3.org/1999/xlink" version="1.1" x="0px" y="0px" viewBox="0 0 100 125" style="enable-background:new 0 0 100 100;" xml:space="preserve"><g><path d="M79.2,16.8H61.5c-0.3-3.8-3.4-6.9-7.3-6.9h-8.4c-3.9,0-7.1,3-7.4,6.9H20.8c-2.7,0-5,2.2-5,5s2.2,5,5,5h58.3   c2.7,0,5-2.2,5-5S81.9,16.8,79.2,16.8z M45.8,12.9h8.4c2.2,0,4.1,1.7,4.3,3.9h-17C41.7,14.6,43.6,12.9,45.8,12.9z M79.2,23.7H20.8   c-1.1,0-2-0.9-2-2s0.9-2,2-2h58.3c1.1,0,2,0.9,2,2S80.2,23.7,79.2,23.7z"/><path d="M50,82.6c0.8,0,1.5-0.7,1.5-1.5V37.7c0-0.8-0.7-1.5-1.5-1.5s-1.5,0.7-1.5,1.5v43.3C48.5,81.9,49.2,82.6,50,82.6z"/><path d="M39.2,82.5c0,0,0.1,0,0.2,0c0.8-0.1,1.4-0.8,1.3-1.6l-4.3-43.1c-0.1-0.8-0.8-1.4-1.6-1.3c-0.8,0.1-1.4,0.8-1.3,1.6   l4.3,43.1C37.7,81.9,38.4,82.5,39.2,82.5z"/><path d="M60.7,82.4c0.1,0,0.1,0,0.2,0c0.8,0,1.4-0.6,1.5-1.4L66.7,38c0.1-0.8-0.5-1.6-1.3-1.6c-0.8-0.1-1.6,0.5-1.6,1.3l-4.3,43.1   C59.3,81.6,59.9,82.4,60.7,82.4z"/><path d="M78.8,28.7H21.2c-0.4,0-0.8,0.2-1.1,0.5c-0.3,0.3-0.4,0.8-0.4,1.2l8,58.3c0.1,0.7,0.7,1.3,1.5,1.3h41.7   c0.8,0,1.4-0.6,1.5-1.3l8-58.3c0.1-0.4-0.1-0.9-0.4-1.2C79.7,28.9,79.3,28.7,78.8,28.7z M69.5,87.1h-39l-7.6-55.3h54.2L69.5,87.1z"/></g><text x="0" y="115" fill="#000000" font-size="5px" font-weight="bold" font-family="'Helvetica Neue', Helvetica, Arial-Unicode, Arial, Sans-serif">Created by ArashDesign</text><text x="0" y="120" fill="#000000" font-size="5px" font-weight="bold" font-family="'Helvetica Neue', Helvetica, Arial-Unicode, Arial, Sans-serif">from the Noun Project</text></svg>