<svg xmlns="http://www.w3.org/2000/svg" data-name="Layer 45" viewBox="0 0 32 40" x="0px" y="0px"><path d="m29.6972656,6.2246094l-4.0507812-3.9414062c-.3964844-.3867188-1.0292969-.375-1.4140625.0195312l-2.0361328,2.0917969-10.8554688,11.1591797c-.0071411.0073242-.0090942.0172119-.0159302.0247192-.0786743.0857544-.1428223.1827393-.1877441.2915039-.0100098.024231-.0133667.0490112-.0213623.0737915-.0175781.0539551-.0391235.1063232-.0474243.1636963l-.6884766,4.7607422c-.0458984.3173828.0625.6367188.2919922.8603516.1884766.1835938.4394531.2832031.6972656.2832031.0566406,0,.1132812-.0048828.1699219-.0146484l4.7392578-.8193359c.0613403-.0106812.1172485-.0346069.1743164-.0557861.0220947-.0081787.0447998-.0115356.0662842-.0212402.1055298-.0476685.1988525-.1140747.2811279-.1937256.0074463-.0072021.0179443-.0098877.0251465-.017334l10.8564453-11.1591797,2.0351562-2.0917969c.3847656-.3955078.3759766-1.0292969-.0195312-1.4140625Zm-4.7285156-1.8105469l2.6171875,2.546875-.640625.6582031-1.309082-1.2734375-1.309082-1.2734375.6416016-.6582031Zm-12.4130859,15.3779297l.2109375-1.4559326.6191406.602417.6191406.6025391-1.4492188.2509766Zm3.5332642-1.0137329l-1.3086548-1.2733765-1.3085938-1.2734375,9.4609375-9.7255859,1.309082,1.2734375,1.309082,1.2734375-9.461853,9.7255249Zm10.5194702-1.0829468v11.3046875c0,.5527344-.4472656,1-1,1H3c-.5527344,0-1-.4472656-1-1V6.3916016c0-.5527344.4472656-1,1-1h11.3046875c.5527344,0,1,.4472656,1,1s-.4472656,1-1,1H4v20.6083984h20.6083984v-10.3046875c0-.5527344.4472656-1,1-1s1,.4472656,1,1Z"/><text x="0" y="47" fill="#000000" font-size="5px" font-weight="bold" font-family="'Helvetica Neue', Helvetica, Arial-Unicode, Arial, Sans-serif">Created by Wayan Tinggen</text><text x="0" y="52" fill="#000000" font-size="5px" font-weight="bold" font-family="'Helvetica Neue', Helvetica, Arial-Unicode, Arial, Sans-serif">from the Noun Project</text></svg>