<svg xmlns:dc="http://purl.org/dc/elements/1.1/" xmlns:cc="http://creativecommons.org/ns#" xmlns:rdf="http://www.w3.org/1999/02/22-rdf-syntax-ns#" xmlns:svg="http://www.w3.org/2000/svg" xmlns="http://www.w3.org/2000/svg" xmlns:sodipodi="http://sodipodi.sourceforge.net/DTD/sodipodi-0.dtd" xmlns:inkscape="http://www.inkscape.org/namespaces/inkscape" version="1.1" x="0px" y="0px" viewBox="0 0 100 125"><g transform="translate(0,-952.36218)"><path style="font-size:medium;font-style:normal;font-variant:normal;font-weight:normal;font-stretch:normal;text-indent:0;text-align:start;text-decoration:none;line-height:normal;letter-spacing:normal;word-spacing:normal;text-transform:none;direction:ltr;block-progression:tb;writing-mode:lr-tb;text-anchor:start;baseline-shift:baseline;opacity:1;color:#000000;fill:#000000;fill-opacity:1;stroke:none;stroke-width:4.64285706999999980;marker:none;visibility:visible;display:inline;overflow:visible;enable-background:accumulate;font-family:Sans;-inkscape-font-specification:Sans" d="M 50 5 C 25.18272 5 5 25.1827 5 50 C 5 74.8173 25.18272 95 50 95 C 74.817279 95 95 74.8173 95 50 C 95 25.1827 74.817279 5 50 5 z M 50 11 C 71.574639 11 89 28.42534 89 50 C 89 71.5746 71.574639 89 50 89 C 28.425361 89 11 71.5746 11 50 C 11 28.42534 28.425361 11 50 11 z M 70 28.9375 A 3.0003 3.0003 0 0 0 67.53125 30.28125 L 44.28125 63.75 L 31.78125 54.5625 A 3.0063614 3.0063614 0 0 0 28.21875 59.40625 L 43.21875 70.40625 A 3.0003 3.0003 0 0 0 47.46875 69.6875 L 72.46875 33.6875 A 3.0003 3.0003 0 0 0 70 28.9375 z " transform="translate(0,952.36218)"/></g><text x="0" y="115" fill="#000000" font-size="5px" font-weight="bold" font-family="'Helvetica Neue', Helvetica, Arial-Unicode, Arial, Sans-serif">Created by johartcamp</text><text x="0" y="120" fill="#000000" font-size="5px" font-weight="bold" font-family="'Helvetica Neue', Helvetica, Arial-Unicode, Arial, Sans-serif">from the Noun Project</text></svg>